<svg width="493" height="67" viewBox="0 0 493 67" fill="none" xmlns="http://www.w3.org/2000/svg">
<g clip-path="url(#clip0_9056_2)">
<path opacity="0.5" d="M0 4V47C0 58.0457 8.9543 67 20 67H61.5" stroke="url(#paint0_linear_9056_2)" stroke-width="5"/>
<path opacity="0.5" d="M492.499 66.9995V23.9995C492.499 12.9538 483.545 3.99952 472.499 3.99952L430.999 3.99952" stroke="url(#paint1_linear_9056_2)" stroke-width="5"/>
<g filter="url(#filter0_dddddddd_9056_2)">
<path d="M48.6875 34C48.6875 38.3099 47.8802 42.0013 46.2656 45.0742C44.6641 48.1341 42.4766 50.4779 39.7031 52.1055C36.9427 53.7331 33.8112 54.5469 30.3086 54.5469C26.806 54.5469 23.668 53.7331 20.8945 52.1055C18.1341 50.4648 15.9466 48.1146 14.332 45.0547C12.7305 41.9818 11.9297 38.2969 11.9297 34C11.9297 29.6901 12.7305 26.0052 14.332 22.9453C15.9466 19.8724 18.1341 17.5221 20.8945 15.8945C23.668 14.2669 26.806 13.4531 30.3086 13.4531C33.8112 13.4531 36.9427 14.2669 39.7031 15.8945C42.4766 17.5221 44.6641 19.8724 46.2656 22.9453C47.8802 26.0052 48.6875 29.6901 48.6875 34ZM41.4023 34C41.4023 30.9661 40.9271 28.4076 39.9766 26.3242C39.0391 24.2279 37.737 22.6458 36.0703 21.5781C34.4036 20.4974 32.4831 19.957 30.3086 19.957C28.1341 19.957 26.2135 20.4974 24.5469 21.5781C22.8802 22.6458 21.5716 24.2279 20.6211 26.3242C19.6836 28.4076 19.2148 30.9661 19.2148 34C19.2148 37.0339 19.6836 39.599 20.6211 41.6953C21.5716 43.7786 22.8802 45.3607 24.5469 46.4414C26.2135 47.5091 28.1341 48.043 30.3086 48.043C32.4831 48.043 34.4036 47.5091 36.0703 46.4414C37.737 45.3607 39.0391 43.7786 39.9766 41.6953C40.9271 39.599 41.4023 37.0339 41.4023 34ZM74.3467 41.3828V24H81.417V54H74.5615V48.668H74.249C73.5719 50.3477 72.4587 51.7214 70.9092 52.7891C69.3727 53.8568 67.4782 54.3906 65.2256 54.3906C63.2594 54.3906 61.5212 53.9544 60.0107 53.082C58.5133 52.1966 57.3415 50.9141 56.4951 49.2344C55.6488 47.5417 55.2256 45.4974 55.2256 43.1016V24H62.2959V42.0078C62.2959 43.9089 62.8167 45.4193 63.8584 46.5391C64.9001 47.6589 66.2673 48.2187 67.96 48.2187C69.0016 48.2187 70.0107 47.9648 70.9873 47.457C71.9639 46.9492 72.7646 46.194 73.3896 45.1914C74.0277 44.1758 74.3467 42.9062 74.3467 41.3828ZM88.6875 54V24H95.543V29H95.8555C96.4023 27.2682 97.3398 25.9336 98.668 24.9961C100.009 24.0456 101.539 23.5703 103.258 23.5703C103.648 23.5703 104.085 23.5898 104.566 23.6289C105.061 23.6549 105.471 23.7005 105.797 23.7656V30.2695C105.497 30.1654 105.022 30.0742 104.371 29.9961C103.733 29.9049 103.115 29.8594 102.516 29.8594C101.227 29.8594 100.068 30.1393 99.0391 30.6992C98.0234 31.2461 97.2227 32.0078 96.6367 32.9844C96.0508 33.9609 95.7578 35.0872 95.7578 36.3633V54H88.6875ZM122.691 20.0742V14H154.605V20.0742H142.242V54H135.055V20.0742H122.691ZM157.33 54V24H164.186V29H164.498C165.045 27.2682 165.982 25.9336 167.311 24.9961C168.652 24.0456 170.182 23.5703 171.9 23.5703C172.291 23.5703 172.727 23.5898 173.209 23.6289C173.704 23.6549 174.114 23.7005 174.439 23.7656V30.2695C174.14 30.1654 173.665 30.0742 173.014 29.9961C172.376 29.9049 171.757 29.8594 171.158 29.8594C169.869 29.8594 168.71 30.1393 167.682 30.6992C166.666 31.2461 165.865 32.0078 165.279 32.9844C164.693 33.9609 164.4 35.0872 164.4 36.3633V54H157.33ZM191.183 54.5859C188.175 54.5859 185.577 53.9609 183.39 52.7109C181.215 51.4479 179.542 49.6641 178.37 47.3594C177.198 45.0417 176.612 42.3138 176.612 39.1758C176.612 36.0898 177.198 33.3815 178.37 31.0508C179.555 28.707 181.209 26.8841 183.331 25.582C185.453 24.2669 187.947 23.6094 190.812 23.6094C192.66 23.6094 194.405 23.9089 196.046 24.5078C197.7 25.0937 199.158 26.0052 200.421 27.2422C201.697 28.4792 202.7 30.0547 203.429 31.9687C204.158 33.8698 204.522 36.1354 204.522 38.7656V40.9336H179.933V36.168H197.745C197.732 34.8138 197.439 33.6094 196.866 32.5547C196.293 31.487 195.493 30.6471 194.464 30.0352C193.448 29.4232 192.263 29.1172 190.909 29.1172C189.464 29.1172 188.194 29.4687 187.101 30.1719C186.007 30.862 185.154 31.7734 184.542 32.9062C183.943 34.026 183.637 35.2565 183.624 36.5977V40.7578C183.624 42.5026 183.943 44 184.581 45.25C185.219 46.487 186.111 47.4375 187.257 48.1016C188.403 48.7526 189.744 49.0781 191.28 49.0781C192.309 49.0781 193.24 48.9349 194.073 48.6484C194.907 48.349 195.629 47.9128 196.241 47.3398C196.853 46.7669 197.315 46.0573 197.628 45.2109L204.229 45.9531C203.813 47.6979 203.019 49.2214 201.847 50.5234C200.688 51.8125 199.203 52.8151 197.394 53.5312C195.584 54.2344 193.513 54.5859 191.183 54.5859ZM217.574 36.4219V54H210.504V24H217.262V29.0977H217.613C218.303 27.418 219.404 26.0833 220.914 25.0937C222.438 24.1042 224.319 23.6094 226.559 23.6094C228.629 23.6094 230.432 24.0521 231.969 24.9375C233.518 25.8229 234.716 27.1055 235.563 28.7852C236.422 30.4648 236.845 32.5026 236.832 34.8984V54H229.762V35.9922C229.762 33.987 229.241 32.418 228.199 31.2852C227.171 30.1523 225.745 29.5859 223.922 29.5859C222.685 29.5859 221.585 29.8594 220.621 30.4062C219.671 30.9401 218.922 31.7148 218.375 32.7305C217.841 33.7461 217.574 34.9766 217.574 36.4219ZM255.152 54.5273C252.796 54.5273 250.686 53.9219 248.824 52.7109C246.962 51.5 245.491 49.7422 244.41 47.4375C243.329 45.1328 242.789 42.3333 242.789 39.0391C242.789 35.7057 243.336 32.8932 244.43 30.6016C245.536 28.2969 247.027 26.5586 248.902 25.3867C250.777 24.2018 252.867 23.6094 255.172 23.6094C256.93 23.6094 258.375 23.9089 259.508 24.5078C260.641 25.0937 261.539 25.8034 262.203 26.6367C262.867 27.457 263.382 28.2318 263.746 28.9609H264.039V14H271.129V54H264.176V49.2734H263.746C263.382 50.0026 262.854 50.7773 262.164 51.5977C261.474 52.4049 260.563 53.0951 259.43 53.668C258.297 54.2409 256.871 54.5273 255.152 54.5273ZM257.125 48.7266C258.622 48.7266 259.898 48.3229 260.953 47.5156C262.008 46.6953 262.809 45.556 263.355 44.0977C263.902 42.6393 264.176 40.9401 264.176 39C264.176 37.0599 263.902 35.3737 263.355 33.9414C262.822 32.5091 262.027 31.3958 260.973 30.6016C259.931 29.8073 258.648 29.4102 257.125 29.4102C255.549 29.4102 254.234 29.8203 253.18 30.6406C252.125 31.4609 251.331 32.5937 250.797 34.0391C250.263 35.4844 249.996 37.138 249.996 39C249.996 40.875 250.263 42.5482 250.797 44.0195C251.344 45.4779 252.145 46.6302 253.199 47.4766C254.267 48.3099 255.576 48.7266 257.125 48.7266ZM283.058 65.25C282.094 65.25 281.202 65.1719 280.382 65.0156C279.575 64.8724 278.93 64.7031 278.448 64.5078L280.089 59C281.118 59.2995 282.035 59.4427 282.843 59.4297C283.65 59.4167 284.36 59.1628 284.972 58.668C285.597 58.1862 286.124 57.3789 286.554 56.2461L287.159 54.625L276.28 24H283.78L290.694 46.6562H291.007L297.94 24H305.46L293.448 57.6328C292.888 59.2214 292.146 60.582 291.222 61.7148C290.297 62.8607 289.164 63.7331 287.823 64.332C286.495 64.944 284.907 65.25 283.058 65.25ZM323.995 65.25V24H330.948V28.9609H331.358C331.723 28.2318 332.237 27.457 332.901 26.6367C333.565 25.8034 334.464 25.0937 335.597 24.5078C336.729 23.9089 338.175 23.6094 339.933 23.6094C342.25 23.6094 344.34 24.2018 346.202 25.3867C348.077 26.5586 349.562 28.2969 350.655 30.6016C351.762 32.8932 352.315 35.7057 352.315 39.0391C352.315 42.3333 351.775 45.1328 350.694 47.4375C349.614 49.7422 348.142 51.5 346.28 52.7109C344.418 53.9219 342.309 54.5273 339.952 54.5273C338.233 54.5273 336.808 54.2409 335.675 53.668C334.542 53.0951 333.631 52.4049 332.94 51.5977C332.263 50.7773 331.736 50.0026 331.358 49.2734H331.065V65.25H323.995ZM330.929 39C330.929 40.9401 331.202 42.6393 331.749 44.0977C332.309 45.556 333.11 46.6953 334.151 47.5156C335.206 48.3229 336.482 48.7266 337.979 48.7266C339.542 48.7266 340.851 48.3099 341.905 47.4766C342.96 46.6302 343.754 45.4779 344.288 44.0195C344.835 42.5482 345.108 40.875 345.108 39C345.108 37.138 344.841 35.4844 344.308 34.0391C343.774 32.5937 342.979 31.4609 341.925 30.6406C340.87 29.8203 339.555 29.4102 337.979 29.4102C336.469 29.4102 335.187 29.8073 334.132 30.6016C333.077 31.3958 332.276 32.5091 331.729 33.9414C331.196 35.3737 330.929 37.0599 330.929 39ZM365.44 14V54H358.37V14H365.44ZM381.344 54.6055C379.443 54.6055 377.73 54.2669 376.207 53.5898C374.697 52.8997 373.499 51.8841 372.613 50.543C371.741 49.2018 371.305 47.5482 371.305 45.582C371.305 43.8893 371.617 42.4896 372.242 41.3828C372.867 40.276 373.72 39.3906 374.801 38.7266C375.882 38.0625 377.099 37.5612 378.453 37.2227C379.82 36.8711 381.233 36.6172 382.691 36.4609C384.449 36.2786 385.875 36.1159 386.969 35.9727C388.063 35.8164 388.857 35.582 389.352 35.2695C389.859 34.944 390.113 34.4427 390.113 33.7656V33.6484C390.113 32.1771 389.677 31.0378 388.805 30.2305C387.932 29.4232 386.676 29.0195 385.035 29.0195C383.303 29.0195 381.93 29.3971 380.914 30.1523C379.911 30.9076 379.234 31.7995 378.883 32.8281L372.281 31.8906C372.802 30.0677 373.661 28.5443 374.859 27.3203C376.057 26.0833 377.522 25.1589 379.254 24.5469C380.986 23.9219 382.9 23.6094 384.996 23.6094C386.441 23.6094 387.88 23.7786 389.313 24.1172C390.745 24.4557 392.053 25.0156 393.238 25.7969C394.423 26.5651 395.374 27.6133 396.09 28.9414C396.819 30.2695 397.184 31.9297 397.184 33.9219V54H390.387V49.8789H390.152C389.723 50.7122 389.117 51.4935 388.336 52.2227C387.568 52.9388 386.598 53.5182 385.426 53.9609C384.267 54.3906 382.906 54.6055 381.344 54.6055ZM383.18 49.4102C384.599 49.4102 385.829 49.1302 386.871 48.5703C387.913 47.9974 388.714 47.2422 389.273 46.3047C389.846 45.3672 390.133 44.3451 390.133 43.2383V39.7031C389.911 39.8854 389.534 40.0547 389 40.2109C388.479 40.3672 387.893 40.5039 387.242 40.6211C386.591 40.7383 385.947 40.8424 385.309 40.9336C384.671 41.0247 384.117 41.1029 383.648 41.168C382.594 41.3112 381.65 41.5456 380.816 41.8711C379.983 42.1966 379.326 42.6523 378.844 43.2383C378.362 43.8112 378.121 44.5534 378.121 45.4648C378.121 46.7669 378.596 47.75 379.547 48.4141C380.497 49.0781 381.708 49.4102 383.18 49.4102ZM411.363 36.4219V54H404.293V24H411.051V29.0977H411.402C412.092 27.418 413.193 26.0833 414.703 25.0937C416.227 24.1042 418.108 23.6094 420.348 23.6094C422.418 23.6094 424.221 24.0521 425.758 24.9375C427.307 25.8229 428.505 27.1055 429.352 28.7852C430.211 30.4648 430.634 32.5026 430.621 34.8984V54H423.551V35.9922C423.551 33.987 423.03 32.418 421.988 31.2852C420.96 30.1523 419.534 29.5859 417.711 29.5859C416.474 29.5859 415.374 29.8594 414.41 30.4062C413.46 30.9401 412.711 31.7148 412.164 32.7305C411.63 33.7461 411.363 34.9766 411.363 36.4219ZM452.789 24V29.4687H435.543V24H452.789ZM439.801 16.8125H446.871V44.9766C446.871 45.9271 447.014 46.6563 447.301 47.1641C447.6 47.6589 447.991 47.9974 448.473 48.1797C448.954 48.362 449.488 48.4531 450.074 48.4531C450.517 48.4531 450.921 48.4206 451.285 48.3555C451.663 48.2904 451.949 48.2318 452.145 48.1797L453.336 53.707C452.958 53.8372 452.418 53.9805 451.715 54.1367C451.025 54.293 450.178 54.3841 449.176 54.4102C447.405 54.4622 445.81 54.1953 444.391 53.6094C442.971 53.0104 441.845 52.0859 441.012 50.8359C440.191 49.5859 439.788 48.0234 439.801 46.1484V16.8125ZM481.983 31.9297L475.538 32.6328C475.356 31.9818 475.037 31.3698 474.581 30.7969C474.138 30.224 473.539 29.7617 472.784 29.4102C472.029 29.0586 471.104 28.8828 470.011 28.8828C468.539 28.8828 467.302 29.2018 466.3 29.8398C465.31 30.4779 464.822 31.3047 464.835 32.3203C464.822 33.1927 465.141 33.9023 465.792 34.4492C466.456 34.9961 467.55 35.4453 469.073 35.7969L474.19 36.8906C477.029 37.5026 479.138 38.4727 480.519 39.8008C481.912 41.1289 482.615 42.8672 482.628 45.0156C482.615 46.9036 482.062 48.5703 480.968 50.0156C479.887 51.4479 478.383 52.5677 476.456 53.375C474.529 54.1823 472.315 54.5859 469.815 54.5859C466.144 54.5859 463.188 53.8177 460.948 52.2812C458.709 50.7318 457.374 48.5768 456.944 45.8164L463.839 45.1523C464.151 46.5065 464.815 47.5286 465.831 48.2187C466.847 48.9089 468.168 49.2539 469.796 49.2539C471.476 49.2539 472.823 48.9089 473.839 48.2187C474.868 47.5286 475.382 46.6758 475.382 45.6602C475.382 44.8008 475.05 44.0911 474.386 43.5312C473.735 42.9714 472.719 42.5417 471.339 42.2422L466.222 41.168C463.344 40.569 461.215 39.5599 459.835 38.1406C458.455 36.7083 457.771 34.8984 457.784 32.7109C457.771 30.862 458.272 29.2604 459.288 27.9062C460.317 26.5391 461.743 25.4844 463.565 24.7422C465.401 23.987 467.517 23.6094 469.913 23.6094C473.429 23.6094 476.196 24.3581 478.214 25.8555C480.245 27.3529 481.502 29.3776 481.983 31.9297Z" fill="white"/>
</g>
</g>
<defs>
<filter id="filter0_dddddddd_9056_2" x="-68.0703" y="13.4531" width="630.698" height="231.797" filterUnits="userSpaceOnUse" color-interpolation-filters="sRGB">
<feFlood flood-opacity="0" result="BackgroundImageFix"/>
<feColorMatrix in="SourceAlpha" type="matrix" values="0 0 0 0 0 0 0 0 0 0 0 0 0 0 0 0 0 0 127 0" result="hardAlpha"/>
<feOffset dy="1.99324"/>
<feGaussianBlur stdDeviation="0.797297"/>
<feColorMatrix type="matrix" values="0 0 0 0 0 0 0 0 0 0 0 0 0 0 0 0 0 0 0.0862802 0"/>
<feBlend mode="normal" in2="BackgroundImageFix" result="effect1_dropShadow_9056_2"/>
<feColorMatrix in="SourceAlpha" type="matrix" values="0 0 0 0 0 0 0 0 0 0 0 0 0 0 0 0 0 0 127 0" result="hardAlpha"/>
<feOffset dy="4.5288"/>
<feGaussianBlur stdDeviation="1.81152"/>
<feColorMatrix type="matrix" values="0 0 0 0 0 0 0 0 0 0 0 0 0 0 0 0 0 0 0.125428 0"/>
<feBlend mode="normal" in2="effect1_dropShadow_9056_2" result="effect2_dropShadow_9056_2"/>
<feColorMatrix in="SourceAlpha" type="matrix" values="0 0 0 0 0 0 0 0 0 0 0 0 0 0 0 0 0 0 127 0" result="hardAlpha"/>
<feOffset dy="7.88218"/>
<feGaussianBlur stdDeviation="3.15287"/>
<feColorMatrix type="matrix" values="0 0 0 0 0 0 0 0 0 0 0 0 0 0 0 0 0 0 0.154478 0"/>
<feBlend mode="normal" in2="effect2_dropShadow_9056_2" result="effect3_dropShadow_9056_2"/>
<feColorMatrix in="SourceAlpha" type="matrix" values="0 0 0 0 0 0 0 0 0 0 0 0 0 0 0 0 0 0 127 0" result="hardAlpha"/>
<feOffset dy="12.5216"/>
<feGaussianBlur stdDeviation="5.00862"/>
<feColorMatrix type="matrix" values="0 0 0 0 0 0 0 0 0 0 0 0 0 0 0 0 0 0 0.18 0"/>
<feBlend mode="normal" in2="effect3_dropShadow_9056_2" result="effect4_dropShadow_9056_2"/>
<feColorMatrix in="SourceAlpha" type="matrix" values="0 0 0 0 0 0 0 0 0 0 0 0 0 0 0 0 0 0 127 0" result="hardAlpha"/>
<feOffset dy="19.3198"/>
<feGaussianBlur stdDeviation="7.72793"/>
<feColorMatrix type="matrix" values="0 0 0 0 0 0 0 0 0 0 0 0 0 0 0 0 0 0 0.205522 0"/>
<feBlend mode="normal" in2="effect4_dropShadow_9056_2" result="effect5_dropShadow_9056_2"/>
<feColorMatrix in="SourceAlpha" type="matrix" values="0 0 0 0 0 0 0 0 0 0 0 0 0 0 0 0 0 0 127 0" result="hardAlpha"/>
<feOffset dy="30.1471"/>
<feGaussianBlur stdDeviation="12.0588"/>
<feColorMatrix type="matrix" values="0 0 0 0 0 0 0 0 0 0 0 0 0 0 0 0 0 0 0.234572 0"/>
<feBlend mode="normal" in2="effect5_dropShadow_9056_2" result="effect6_dropShadow_9056_2"/>
<feColorMatrix in="SourceAlpha" type="matrix" values="0 0 0 0 0 0 0 0 0 0 0 0 0 0 0 0 0 0 127 0" result="hardAlpha"/>
<feOffset dy="50.0488"/>
<feGaussianBlur stdDeviation="20.0195"/>
<feColorMatrix type="matrix" values="0 0 0 0 0 0 0 0 0 0 0 0 0 0 0 0 0 0 0.27372 0"/>
<feBlend mode="normal" in2="effect6_dropShadow_9056_2" result="effect7_dropShadow_9056_2"/>
<feColorMatrix in="SourceAlpha" type="matrix" values="0 0 0 0 0 0 0 0 0 0 0 0 0 0 0 0 0 0 127 0" result="hardAlpha"/>
<feOffset dy="100"/>
<feGaussianBlur stdDeviation="40"/>
<feColorMatrix type="matrix" values="0 0 0 0 0 0 0 0 0 0 0 0 0 0 0 0 0 0 0.36 0"/>
<feBlend mode="normal" in2="effect7_dropShadow_9056_2" result="effect8_dropShadow_9056_2"/>
<feBlend mode="normal" in="SourceGraphic" in2="effect8_dropShadow_9056_2" result="shape"/>
</filter>
<linearGradient id="paint0_linear_9056_2" x1="61" y1="67" x2="-7" y2="-2" gradientUnits="userSpaceOnUse">
<stop stop-color="#FBD300"/>
<stop offset="1" stop-color="white"/>
</linearGradient>
<linearGradient id="paint1_linear_9056_2" x1="431.499" y1="3.99952" x2="499.499" y2="72.9995" gradientUnits="userSpaceOnUse">
<stop stop-color="#FBD300"/>
<stop offset="1" stop-color="white"/>
</linearGradient>
<clipPath id="clip0_9056_2">
<rect width="492.499" height="67" fill="white"/>
</clipPath>
</defs>
</svg>
